<svg width="108" height="20" viewBox="0 0 108 20" fill="none" xmlns="http://www.w3.org/2000/svg">
<g clip-path="url(#clip0_2065_160)">
<path d="M107.076 13.6045C106.459 12.9619 105.56 12.4813 104.381 12.1648L102.611 11.7156C101.554 11.4337 101.026 10.9412 101.026 10.236C101.026 9.79532 101.197 9.4346 101.541 9.15272C101.884 8.87084 102.338 8.73044 102.902 8.73044C103.447 8.73044 103.906 8.8676 104.275 9.13976C104.646 9.413 104.865 9.78668 104.936 10.263H107.834C107.834 10.263 107.801 8.21852 106.112 7.11908C105.184 6.51428 104.118 6.22052 102.797 6.22052C102.057 6.22052 101.387 6.32204 100.789 6.524C100.19 6.72704 99.6831 7.00892 99.2695 7.36964C98.8548 7.73036 98.5383 8.16236 98.318 8.66456C98.0977 9.16676 97.9875 9.70784 97.9875 10.29C97.9875 11.1885 98.2737 11.9586 98.8461 12.6022C99.4185 13.2459 100.366 13.7427 101.687 14.0948L103.484 14.57C104.417 14.8173 104.84 15.285 104.884 15.9708C104.927 16.6306 104.379 17.4774 103.045 17.4774C102.358 17.4774 101.812 17.3326 101.407 17.0421C101.002 16.7516 100.773 16.3509 100.72 15.8401H97.8018C97.8018 15.8401 97.8018 17.823 99.438 18.998C100.338 19.6438 101.539 19.9884 103.071 19.9884C104.709 19.9884 105.657 19.6449 106.64 18.9051C107.567 18.2085 108.001 17.2138 108.001 15.9988C108 15.0452 107.691 14.2482 107.076 13.6045Z" fill="#6329C2"/>
<path d="M26.8714 14.9394C26.6425 15.609 25.8886 17.1318 23.5688 17.1318C22.4585 17.1318 21.5827 16.7786 20.9401 16.0712C20.2964 15.3649 19.9756 14.3745 19.9756 13.1023C19.9756 11.8657 20.2964 10.8753 20.9401 10.1334C21.5827 9.39142 22.4596 9.0199 23.5688 9.0199C25.8454 9.0199 26.6155 10.5881 26.8455 11.2922H29.8166C29.8166 11.2922 29.6243 8.7121 27.2321 7.21198C26.3271 6.64498 25.1618 6.21838 23.5169 6.21838C22.5125 6.21838 21.6021 6.38578 20.7845 6.72058C19.967 7.05538 19.265 7.52302 18.6796 8.12134C18.0943 8.72074 17.645 9.44218 17.3296 10.2878C17.0153 11.1335 16.8577 12.0763 16.8577 13.1153C16.8577 14.1369 17.0186 15.0701 17.3426 15.9157C17.6655 16.7613 18.1159 17.4839 18.6915 18.0822C19.2682 18.6816 19.9648 19.1481 20.7835 19.4829C21.601 19.8177 22.5039 20.0165 23.4899 19.9851C29.3003 19.8026 29.8166 14.9383 29.8166 14.9383H26.8714V14.9394Z" fill="#6329C2"/>
<path d="M13.1468 8.06736L10.5214 9.92497L11.7439 13.4144L8.67348 11.2318L5.589 13.4144L8.667 4.63404L9.86796 8.06304H13.1458L10.3572 0.354004H4.48848L6.4692 1.75476L0 19.6428H3.38256L4.968 15.15H12.3131L13.8715 19.6428H17.3329L13.1468 8.06736Z" fill="#6329C2"/>
<path d="M43.2992 11.7156V19.6428H40.1813V12.3852C40.1813 11.7502 40.1057 11.2156 39.9566 10.7836C39.8065 10.3505 39.6002 10.007 39.3356 9.75C39.0721 9.49404 38.7632 9.30828 38.4112 9.1938C38.058 9.07932 37.68 9.02208 37.275 9.02208C36.9056 9.02208 36.5309 9.08796 36.1518 9.2208C35.7727 9.35364 35.425 9.55668 35.1085 9.82992C34.791 10.1042 34.5361 10.4574 34.3428 10.8894C34.1484 11.3225 34.0523 11.8387 34.0523 12.4392V19.6439H30.9343V0.0105591H34.0523V7.94748C34.4573 7.42368 34.9984 7.00572 35.6777 6.69144C36.3559 6.37716 37.1 6.21948 37.91 6.21948C39.6186 6.21948 40.9438 6.68604 41.8866 7.62024C42.8284 8.55444 43.2992 9.91848 43.2992 11.7156Z" fill="#6329C2"/>
<path d="M44.6658 2.09819C44.6658 1.53443 44.8591 1.06355 45.2468 0.684474C45.6345 0.305394 46.1011 0.116394 46.6476 0.116394C47.193 0.116394 47.6552 0.310794 48.0343 0.697434C48.4134 1.08515 48.6024 1.55279 48.6024 2.09819C48.6024 2.64467 48.4134 3.11123 48.0343 3.49895C47.6552 3.88667 47.193 4.07999 46.6476 4.07999C46.1011 4.07999 45.6345 3.88667 45.2468 3.49895C44.8591 3.11123 44.6658 2.64359 44.6658 2.09819ZM48.206 6.61583V19.6417H45.0881V6.61583H48.206Z" fill="#6329C2"/>
<path d="M75.6864 6.61584L70.2432 19.6417H67.1512L61.9456 6.61584H65.3281L68.7625 15.9427L72.4345 6.61584H75.6864Z" fill="#6329C2"/>
<path d="M95.688 6.43115C96.269 6.43115 96.7799 6.49271 97.2205 6.61583V9.49619C96.7442 9.37307 96.2604 9.31151 95.7668 9.31151C94.6577 9.31151 93.798 9.65495 93.191 10.3418C92.5841 11.0287 92.2795 11.9802 92.2795 13.1952V19.6428H89.1086V6.61583H92.0149L92.1996 8.14835C92.4642 7.58459 92.9135 7.15799 93.5474 6.86747C94.1814 6.57587 94.8953 6.43115 95.688 6.43115Z" fill="#6329C2"/>
<path d="M62.4749 13.1164C62.4749 12.0774 62.3204 11.1346 62.0126 10.2889C61.7038 9.44328 61.2728 8.72184 60.7177 8.12244C60.1626 7.52412 59.4887 7.05648 58.697 6.72168C57.9043 6.38688 57.0328 6.21948 56.0813 6.21948C55.1125 6.21948 54.2226 6.38688 53.4126 6.72168C52.6015 7.05648 51.9103 7.52736 51.3379 8.1354C50.7655 8.74344 50.3206 9.4746 50.003 10.3289C49.6855 11.1832 49.5278 12.1217 49.5278 13.1434C49.5278 14.165 49.6866 15.0982 50.003 15.9438C50.3206 16.7894 50.7644 17.512 51.3379 18.1103C51.9103 18.7097 52.5972 19.1719 53.3986 19.497C54.1999 19.8221 55.0769 19.9862 56.0273 19.9862C57.401 19.9862 58.6225 19.6871 59.6604 19.0348C62.0634 17.5238 62.3334 15.3088 62.3334 15.3088H59.3569C59.0577 15.9427 58.6257 16.432 58.062 16.7754C57.4982 17.1188 56.82 17.2906 56.0273 17.2906C55.0758 17.2906 54.2744 17.04 53.6232 16.5378C52.972 16.0356 52.5929 15.2828 52.487 14.2784H62.4749V13.1164ZM52.54 12.059C52.6631 11.0104 53.0292 10.2112 53.6362 9.66144C54.2442 9.11064 55.0326 8.83524 56.0014 8.83524C56.9701 8.83524 57.7456 9.10632 58.3266 9.6474C58.9076 10.1885 59.2338 10.9931 59.304 12.059H52.54Z" fill="#6329C2"/>
<path d="M87.9487 13.1164C87.9487 12.0774 87.7943 11.1346 87.4865 10.2889C87.1776 9.44328 86.7467 8.72184 86.1916 8.12244C85.6365 7.52412 84.9625 7.05648 84.1709 6.72168C83.3782 6.38688 82.5066 6.21948 81.5551 6.21948C80.5864 6.21948 79.6965 6.38688 78.8865 6.72168C78.0754 7.05648 77.3842 7.52736 76.8118 8.1354C76.2394 8.74344 75.7944 9.4746 75.4769 10.3289C75.1594 11.1832 75.0017 12.1217 75.0017 13.1434C75.0017 14.165 75.1605 15.0982 75.4769 15.9438C75.7944 16.7894 76.2383 17.512 76.8118 18.1103C77.3842 18.7097 78.0711 19.1719 78.8724 19.497C79.6738 19.8221 80.5507 19.9862 81.5011 19.9862C82.8749 19.9862 84.0964 19.6871 85.1343 19.0348C87.5373 17.5238 87.8073 15.3088 87.8073 15.3088H84.8308C84.5316 15.9427 84.0996 16.432 83.5359 16.7754C82.9721 17.1188 82.2939 17.2906 81.5011 17.2906C80.5497 17.2906 79.7483 17.04 79.0971 16.5378C78.4458 16.0356 78.0667 15.2828 77.9609 14.2784H87.9487V13.1164ZM78.0138 12.059C78.1369 11.0104 78.5031 10.2112 79.11 9.66144C79.7181 9.11064 80.5065 8.83524 81.4752 8.83524C82.444 8.83524 83.2194 9.10632 83.8005 9.6474C84.3815 10.1885 84.7077 10.9931 84.7779 12.059H78.0138Z" fill="#6329C2"/>
</g>
<defs>
<clipPath id="clip0_2065_160">
<rect width="108" height="19.9789" fill="white" transform="translate(0 0.0105591)"/>
</clipPath>
</defs>
</svg>
